<svg width="42" height="42" viewBox="0 0 42 42" fill="none" xmlns="http://www.w3.org/2000/svg">
<path d="M36.75 29.75V30.25C37.0261 30.25 37.25 30.0261 37.25 29.75H36.75ZM36.75 7H37.25C37.25 6.72386 37.0261 6.5 36.75 6.5V7ZM22.75 29.75V29.25C22.6513 29.25 22.5548 29.2792 22.4726 29.334L22.75 29.75ZM12.25 36.75H11.75C11.75 36.9344 11.8515 37.1038 12.0141 37.1908C12.1766 37.2778 12.3739 37.2683 12.5274 37.166L12.25 36.75ZM12.25 29.75H12.75C12.75 29.4739 12.5261 29.25 12.25 29.25V29.75ZM5.25 29.75H4.75C4.75 30.0261 4.97386 30.25 5.25 30.25V29.75ZM5.25 7V6.5C4.97386 6.5 4.75 6.72386 4.75 7H5.25ZM37.25 29.75V7H36.25V29.75H37.25ZM22.75 30.25H36.75V29.25H22.75V30.25ZM12.5274 37.166L23.0274 30.166L22.4726 29.334L11.9726 36.334L12.5274 37.166ZM11.75 29.75V36.75H12.75V29.75H11.75ZM5.25 30.25H12.25V29.25H5.25V30.25ZM4.75 7V29.75H5.75V7H4.75ZM36.75 6.5H5.25V7.5H36.75V6.5Z" fill="#52525B"/>
</svg>
