<svg width="32" height="32" viewBox="0 0 32 32" fill="none" xmlns="http://www.w3.org/2000/svg">
<path d="M6.66675 16H22.6667V24.3333C22.6667 27.0948 20.4282 29.3333 17.6667 29.3333H11.6667C8.90532 29.3333 6.66675 27.0948 6.66675 24.3333V16Z" stroke="#52525B"/>
<path d="M22.6667 17.3334H25.3334C26.8062 17.3334 28.0001 18.5273 28.0001 20V20C28.0001 21.4728 26.8062 22.6667 25.3334 22.6667H22.6667" stroke="#52525B"/>
<path d="M12.0001 12C12.0001 12 10.6667 11.3333 10.6667 9.33329C10.6667 7.33329 12.0001 6.66663 12.0001 6.66663" stroke="#52525B" stroke-linecap="round"/>
<path d="M16.0002 4.00004C16.0002 4.00004 17.3335 4.66671 17.3335 6.66671C17.3335 8.66671 16.0002 9.33337 16.0002 9.33337" stroke="#52525B" stroke-linecap="round"/>
</svg>
