<svg width="42" height="42" viewBox="0 0 42 42" fill="none" xmlns="http://www.w3.org/2000/svg">
<path d="M1.75 31.5C1.75 27.5625 7 27.5625 9.625 24.9375C10.9375 23.625 7 23.625 7 17.0625C7 12.6879 8.74956 10.5 12.25 10.5C15.7504 10.5 17.5 12.6879 17.5 17.0625C17.5 23.625 13.5625 23.625 14.875 24.9375C17.5 27.5625 22.75 27.5625 22.75 31.5" stroke="#52525B" stroke-linecap="round"/>
<path d="M20.9907 28.4254C21.983 27.7416 23.2711 27.2492 24.5036 26.6556C25.4673 26.1915 26.397 25.6654 27.1249 24.9375C28.4374 23.625 24.4999 23.625 24.4999 17.0625C24.4999 12.6879 26.2495 10.5 29.7499 10.5C33.2504 10.5 34.9999 12.6879 34.9999 17.0625C34.9999 23.625 31.0624 23.625 32.3749 24.9375C34.9999 27.5625 40.2499 27.5625 40.2499 31.5" stroke="#52525B" stroke-linecap="round"/>
</svg>
