<svg width="42" height="42" viewBox="0 0 42 42" fill="none" xmlns="http://www.w3.org/2000/svg">
<path fill-rule="evenodd" clip-rule="evenodd" d="M17.5 22.75C18.4665 22.75 19.25 21.9665 19.25 21C19.25 20.0335 18.4665 19.25 17.5 19.25C16.5335 19.25 15.75 20.0335 15.75 21C15.75 21.9665 16.5335 22.75 17.5 22.75Z" stroke="#52525B"/>
<path fill-rule="evenodd" clip-rule="evenodd" d="M14.4142 31.5C14.149 31.5 13.8946 31.3946 13.7071 31.2071L3.5 21L13.7071 10.7929C13.8946 10.6054 14.149 10.5 14.4142 10.5H35C36.933 10.5 38.5 12.067 38.5 14V28C38.5 29.933 36.933 31.5 35 31.5H14.4142Z" stroke="#52525B" stroke-linecap="round"/>
</svg>
