<?xml version="1.0" standalone="no"?>
<!DOCTYPE svg PUBLIC "-//W3C//DTD SVG 20010904//EN"
 "http://www.w3.org/TR/2001/REC-SVG-20010904/DTD/svg10.dtd">
<svg version="1.0" xmlns="http://www.w3.org/2000/svg"
 width="2049.000000pt" height="624.000000pt" viewBox="0 0 2049.000000 624.000000"
 preserveAspectRatio="xMidYMid meet">

<g transform="translate(0.000000,624.000000) scale(0.100000,-0.100000)"
fill="#000000" stroke="none">
<path d="M6744 1567 c-9 -24 1 -207 11 -207 6 0 12 28 15 62 l5 63 43 -68 c35
-55 47 -68 65 -65 21 3 22 8 25 116 2 89 0 113 -10 110 -8 -3 -15 -30 -18 -71
l-5 -66 -45 69 c-44 68 -74 88 -86 57z"/>
<path d="M6991 1469 c-18 -61 -30 -113 -27 -116 9 -9 26 8 26 28 0 16 7 19 39
19 33 0 40 -4 43 -22 2 -18 11 -24 36 -26 17 -2 32 0 32 5 0 4 -13 55 -30 113
-16 58 -30 106 -30 107 0 2 -13 3 -28 3 -28 0 -30 -3 -61 -111z m58 -21 c1
-12 -6 -18 -20 -18 -18 0 -20 4 -14 33 4 17 10 36 13 42 6 10 19 -26 21 -57z"/>
<path d="M7172 1568 c3 -7 17 -14 31 -16 l27 -3 0 -100 0 -100 33 3 32 3 3 98
c3 96 3 97 27 97 16 0 25 6 25 15 0 12 -17 15 -91 15 -68 0 -90 -3 -87 -12z"/>
<path d="M7400 1486 c0 -73 4 -98 16 -110 37 -38 119 -29 141 14 17 33 13 182
-4 188 -10 3 -13 -18 -13 -81 0 -104 -4 -117 -40 -117 -36 0 -40 13 -40 116
l0 84 -30 0 -30 0 0 -94z"/>
<path d="M7634 1567 c-2 -7 -3 -58 -2 -113 l3 -99 33 -3 32 -3 0 56 c0 48 3
56 18 53 11 -2 18 -14 20 -33 6 -67 11 -75 43 -75 l32 0 -6 47 c-3 26 -12 52
-20 58 -14 10 -13 13 4 24 29 18 22 71 -11 88 -34 17 -139 17 -146 0z m110
-29 c13 -21 -2 -51 -28 -56 -13 -3 -16 5 -16 38 0 33 3 41 16 38 9 -2 22 -11
28 -20z"/>
<path d="M7880 1465 l0 -115 75 0 c60 0 75 3 75 15 0 11 -12 15 -45 15 l-45 0
0 39 c0 37 2 40 32 43 46 4 49 28 4 28 -33 0 -36 2 -36 30 0 28 2 30 40 30 29
0 40 4 40 15 0 12 -14 15 -70 15 l-70 0 0 -115z"/>
<path d="M8723 1570 c-70 -28 -79 -174 -13 -207 37 -19 84 -16 114 8 29 23 36
69 11 69 -9 0 -15 -9 -15 -23 0 -43 -44 -63 -71 -31 -14 18 -18 103 -6 147 6
23 12 28 35 25 21 -2 28 -9 30 -31 4 -30 25 -33 30 -4 8 41 -60 69 -115 47z"/>
<path d="M8907 1573 c-12 -11 -7 -157 6 -183 22 -43 104 -52 141 -14 12 12 16
37 16 110 0 56 -4 94 -10 94 -6 0 -10 -36 -10 -89 0 -96 -9 -115 -52 -109 -22
3 -23 7 -26 101 l-3 97 -28 0 c-15 0 -31 -3 -34 -7z"/>
<path d="M9142 1468 l3 -113 74 0 c51 0 76 4 79 13 2 8 -10 12 -42 12 l-46 0
0 100 0 100 -35 0 -36 0 3 -112z"/>
<path d="M9322 1568 c3 -7 17 -14 31 -16 l27 -3 0 -100 0 -100 33 3 32 3 3 98
c3 96 3 97 27 97 16 0 25 6 25 15 0 12 -17 15 -91 15 -68 0 -90 -3 -87 -12z"/>
<path d="M9550 1490 c0 -84 2 -93 26 -117 22 -22 32 -25 67 -20 64 9 77 32 77
139 0 67 -3 89 -12 86 -9 -3 -15 -36 -18 -99 l-5 -94 -30 0 -30 0 -5 95 -5 95
-32 3 -33 3 0 -91z"/>
<path d="M9790 1466 l0 -116 30 0 c30 0 30 0 30 56 0 47 3 55 17 52 10 -2 19
-10 20 -18 11 -88 12 -90 48 -90 33 0 34 0 28 38 -7 43 -20 72 -33 72 -5 0 2
11 15 25 30 29 31 36 6 66 -16 19 -30 24 -90 27 l-71 4 0 -116z m98 85 c8 -5
12 -21 10 -37 -2 -21 -9 -30 -25 -32 -21 -3 -23 1 -23 37 0 41 10 50 38 32z"/>
<path d="M10030 1465 l0 -116 78 3 c82 3 106 21 35 26 -43 3 -43 3 -43 43 0
37 2 39 30 39 20 0 30 5 30 15 0 10 -10 15 -30 15 -27 0 -30 3 -30 30 0 28 3
30 35 30 24 0 35 5 35 15 0 12 -14 15 -70 15 l-70 0 0 -115z"/>
<path d="M10774 1567 c-2 -7 -3 -58 -2 -113 l3 -99 78 -3 c64 -2 77 0 77 13 0
11 -11 15 -45 15 l-45 0 0 39 c0 37 2 40 33 43 17 2 32 8 32 13 0 6 -15 11
-32 13 -29 3 -33 7 -33 32 0 26 4 29 37 32 20 2 38 9 41 16 6 18 -137 17 -144
-1z"/>
<path d="M10970 1572 c0 -5 13 -33 29 -63 l30 -54 -30 -48 c-32 -52 -34 -57
-19 -57 5 0 22 18 36 40 l27 41 21 -38 c17 -30 28 -39 54 -41 40 -4 40 4 1 73
l-31 55 27 46 c15 25 24 49 20 52 -7 7 -29 -17 -51 -53 -9 -16 -12 -14 -32 18
-17 30 -27 37 -52 37 -16 0 -30 -4 -30 -8z"/>
<path d="M11210 1464 l0 -115 33 3 c30 3 32 6 35 44 3 39 5 42 38 49 70 13 94
66 49 110 -21 22 -33 25 -90 25 l-65 0 0 -116z m98 87 c20 -12 11 -75 -10 -79
-15 -3 -18 4 -18 42 0 47 4 52 28 37z"/>
<path d="M11442 1468 l3 -113 74 0 c51 0 76 4 79 13 2 8 -10 12 -42 12 l-46 0
0 40 c0 38 2 40 30 40 20 0 30 5 30 15 0 10 -10 15 -30 15 -27 0 -30 3 -30 29
0 27 4 30 35 33 64 6 42 23 -33 26 l-73 3 3 -113z"/>
<path d="M11652 1468 l3 -113 30 0 c29 0 30 1 33 53 3 44 6 53 20 50 12 -2 18
-17 22 -53 5 -48 6 -50 39 -53 l33 -3 -6 48 c-4 26 -14 53 -21 59 -12 9 -11
13 6 27 19 17 24 43 11 63 -15 23 -52 34 -112 34 l-61 0 3 -112z m112 70 c13
-21 -2 -51 -28 -56 -13 -3 -16 5 -16 38 0 33 3 41 16 38 9 -2 22 -11 28 -20z"/>
<path d="M11900 1465 l0 -115 30 0 30 0 0 115 0 115 -30 0 -30 0 0 -115z"/>
<path d="M12032 1468 l3 -113 74 0 c51 0 76 4 79 13 2 8 -10 12 -42 12 l-46 0
0 40 c0 38 2 40 30 40 20 0 30 5 30 15 0 10 -10 15 -30 15 -27 0 -30 3 -30 29
0 27 4 30 35 33 64 6 42 23 -33 26 l-73 3 3 -113z"/>
<path d="M12242 1468 c3 -123 21 -156 26 -49 l3 64 45 -67 c36 -53 50 -67 67
-64 21 3 22 7 22 112 0 76 -4 111 -12 113 -9 3 -13 -17 -15 -68 l-3 -73 -45
70 c-31 47 -52 70 -68 72 -23 3 -23 3 -20 -110z"/>
<path d="M12521 1566 c-33 -18 -50 -53 -51 -103 0 -76 32 -113 99 -113 38 0
81 35 81 66 0 34 -14 30 -25 -8 -11 -36 -45 -49 -71 -28 -18 16 -19 139 -1
164 20 27 51 17 55 -17 4 -32 25 -32 30 0 6 43 -66 67 -117 39z"/>
<path d="M12710 1465 l0 -116 78 3 c82 3 106 21 35 26 -43 3 -43 3 -43 43 0
37 2 39 30 39 20 0 30 5 30 15 0 10 -10 15 -30 15 -27 0 -30 3 -30 30 0 28 3
30 35 30 24 0 35 5 35 15 0 12 -14 15 -70 15 l-70 0 0 -115z"/>
<path d="M12935 1555 c-43 -43 -25 -85 54 -127 44 -24 39 -53 -9 -53 -31 0
-35 3 -38 28 -2 15 -9 27 -18 27 -21 0 -17 -37 7 -61 18 -18 30 -20 67 -16 51
6 72 26 72 68 0 28 -48 79 -74 79 -7 0 -21 9 -31 20 -23 26 -9 43 31 38 21 -2
30 -9 32 -25 4 -27 32 -31 32 -5 0 52 -83 70 -125 27z"/>
<path d="M8330 1515 c0 -22 -3 -24 -19 -16 -18 10 -31 6 -31 -10 0 -4 10 -11
22 -15 l23 -7 -23 -8 c-24 -9 -30 -29 -9 -29 7 0 18 5 25 12 9 9 12 7 12 -10
0 -14 6 -22 16 -22 12 0 15 6 11 20 -4 17 -2 20 14 15 31 -10 45 6 18 21 -18
10 -20 13 -7 14 22 0 29 12 18 30 -7 12 -12 11 -30 -5 -20 -18 -20 -18 -18 5
2 12 -3 25 -9 27 -8 3 -13 -5 -13 -22z"/>
<path d="M10466 1514 c6 -24 5 -25 -15 -15 -21 12 -41 8 -41 -8 0 -5 10 -12
23 -15 l22 -7 -24 -10 c-19 -7 -22 -12 -13 -21 9 -9 15 -9 24 0 18 18 30 14
23 -8 -5 -14 -2 -20 9 -20 9 0 16 8 16 19 0 14 6 17 25 13 32 -6 33 15 3 28
-17 6 -18 9 -6 9 22 1 33 20 19 34 -8 8 -15 6 -26 -9 -14 -18 -14 -18 -15 9 0
17 -5 27 -15 27 -12 0 -14 -7 -9 -26z"/>
</g>
</svg>
