<svg width="504" height="612" viewBox="0 0 504 612" fill="none" xmlns="http://www.w3.org/2000/svg">
<path d="M30.7895 6.36536L35.1527 19.7631L39.2901 8.40619L43.7797 9.48405L43.9197 26.546L40.4898 25.7225L40.4515 21.0586L40.7273 13.0902L36.3534 24.7295L34.0061 24.1659L29.435 10.3908L29.8428 18.5117L29.8811 23.1756L26.4626 22.3549L26.3226 5.29297L30.7895 6.36536ZM51.2529 23.5232L53.4672 16.1838L56.9996 17.0319L52.163 30.4898L51.895 31.0921C51.1717 32.5714 49.963 33.1077 48.269 32.701C47.7904 32.5861 47.3036 32.3951 46.8086 32.1282L46.7875 29.5618L47.289 29.6939C47.9119 29.8435 48.3745 29.8571 48.6768 29.7347C48.9867 29.6142 49.2271 29.3484 49.3981 28.9372L49.777 27.9873L45.354 14.236L48.8978 15.0868L51.2529 23.5232ZM76.1192 20.09L71.037 18.8699L71.1536 33.0843L67.7351 32.2636L67.6185 18.0492L62.6047 16.8455L62.5814 13.9979L76.0958 17.2425L76.1192 20.09ZM84.0773 26.7021C83.6286 26.532 83.2333 26.4059 82.8915 26.3238C81.6456 26.0247 80.8325 26.2623 80.4522 27.0364L80.5203 35.333L77.2271 34.5424L77.1231 21.8631L80.234 22.61L80.3375 24.1435C80.9889 23.1382 81.8995 22.7759 83.0694 23.0568C83.434 23.1443 83.7763 23.2772 84.0962 23.4553L84.0773 26.7021ZM89.226 37.4231L85.9215 36.6297L85.8175 23.9505L89.122 24.7438L89.226 37.4231ZM85.5969 20.6228C85.5927 20.115 85.7526 19.7363 86.0765 19.4866C86.4081 19.2387 86.8588 19.1832 87.4285 19.32C87.9907 19.4549 88.4402 19.7266 88.7772 20.1349C89.1141 20.5433 89.2847 21.0014 89.2888 21.5092C89.293 22.0248 89.1256 22.4056 88.7864 22.6517C88.4549 22.8995 88.0118 22.9569 87.4573 22.8237C86.9027 22.6906 86.4532 22.4189 86.1086 22.0088C85.7717 21.6004 85.6011 21.1384 85.5969 20.6228ZM102.997 34.519C103.013 36.4721 102.593 37.9345 101.737 38.9062C100.888 39.872 99.7303 40.1788 98.2642 39.8268C97.0183 39.5277 96.0081 38.8408 95.2335 37.766L95.2826 43.7423L91.9894 42.9517L91.8454 25.3976L94.8993 26.1308L95.0234 27.4003C95.813 26.6075 96.8497 26.3651 98.1335 26.6734C99.6528 27.0381 100.839 27.8998 101.692 29.2585C102.544 30.6171 102.979 32.3121 102.996 34.3432L102.997 34.519ZM99.7019 33.4823C99.6922 32.3027 99.4797 31.3433 99.0642 30.6042C98.6563 29.8669 98.0649 29.4053 97.2901 29.2193C96.2569 28.9712 95.55 29.2069 95.1692 29.9264L95.2118 35.1176C95.6213 36.0502 96.3426 36.6405 97.3757 36.8885C98.9482 37.2661 99.7236 36.1307 99.7019 33.4823Z" fill="#FAFAFA"/>
<g filter="url(#filter0_dd)">
<rect width="406" height="110" rx="12" transform="matrix(0.97237 0.233445 0.00820296 0.999966 25.2273 51.9982)" fill="#CCFBF1"/>
<rect x="0.490286" y="0.616706" width="405" height="109" rx="11.5" transform="matrix(0.97237 0.233445 0.00820296 0.999966 25.2358 51.8838)" stroke="#0D9488"/>
</g>
<g filter="url(#filter1_dd)">
<rect width="406" height="110" rx="12" transform="matrix(0.97237 0.233445 0.00820296 0.999966 26.2609 177.994)" fill="#CCFBF1"/>
<rect x="0.490286" y="0.616706" width="405" height="109" rx="11.5" transform="matrix(0.97237 0.233445 0.00820296 0.999966 26.2694 177.88)" stroke="#0D9488"/>
</g>
<rect x="0.490286" y="0.616706" width="405" height="109" rx="11.5" transform="matrix(0.97237 0.233445 0.00820296 0.999966 27.303 303.875)" fill="#0D9488" stroke="#0D9488"/>
<g filter="url(#filter2_d)">
<rect width="406" height="110" rx="12" transform="matrix(0.97237 0.233445 0.00820296 0.999966 57.6266 334.226)" fill="#FDBA74"/>
</g>
<g clip-path="url(#clip0)">
<path fill-rule="evenodd" clip-rule="evenodd" d="M371.987 207.702C376.525 208.792 380.863 207.983 384.045 205.453C387.228 202.923 388.994 198.879 388.956 194.212C388.918 189.544 387.078 184.635 383.841 180.564C380.605 176.492 376.237 173.593 371.698 172.504C367.159 171.414 362.821 172.223 359.639 174.753C356.457 177.283 354.69 181.327 354.728 185.994C354.767 190.662 356.607 195.571 359.843 199.642C363.08 203.713 367.448 206.613 371.987 207.702ZM379.749 189.162C380.135 188.841 380.346 188.337 380.337 187.759C380.327 187.181 380.098 186.575 379.698 186.072C379.298 185.569 378.759 185.209 378.198 185.069C377.637 184.93 377.099 185.022 376.699 185.325L369.714 190.879L366.924 187.37C366.517 186.872 365.975 186.521 365.414 186.391C364.854 186.262 364.319 186.364 363.926 186.677C363.532 186.989 363.312 187.487 363.312 188.063C363.312 188.639 363.532 189.246 363.925 189.754L368.239 195.181C368.644 195.69 369.19 196.052 369.757 196.189C370.324 196.325 370.866 196.224 371.264 195.908L379.749 189.162Z" fill="#115E59"/>
</g>
<path d="M65.1641 107.137C65.1595 106.575 64.9622 106.094 64.5723 105.697C64.1881 105.3 63.4933 104.827 62.488 104.275C61.4827 103.724 60.6822 103.187 60.0866 102.664C58.9468 101.659 58.372 100.568 58.3624 99.3904C58.3539 98.3592 58.7543 97.6074 59.5636 97.135C60.3785 96.6641 61.4384 96.5852 62.7431 96.8984C63.6091 97.1064 64.3825 97.4558 65.0632 97.9466C65.7438 98.4375 66.2804 99.0342 66.6728 99.7365C67.0652 100.433 67.2644 101.15 67.2705 101.889L65.1168 101.372C65.1114 100.704 64.902 100.133 64.4887 99.6595C64.081 99.1815 63.4983 98.8516 62.7406 98.6697C62.0341 98.5001 61.4855 98.5233 61.095 98.7395C60.7101 98.957 60.5199 99.3441 60.5245 99.9007C60.5283 100.369 60.7424 100.813 61.1666 101.23C61.5907 101.642 62.2883 102.114 63.2593 102.645C64.2303 103.17 65.0108 103.694 65.6008 104.216C66.1907 104.732 66.6244 105.268 66.9019 105.826C67.1794 106.378 67.3208 106.982 67.3262 107.639C67.3349 108.705 66.9431 109.459 66.1506 109.9C65.3638 110.337 64.2896 110.392 62.9279 110.065C62.0277 109.849 61.1973 109.48 60.4367 108.958C59.6818 108.432 59.0911 107.816 58.6645 107.112C58.2437 106.408 58.0299 105.655 58.0234 104.853L60.1855 105.372C60.1915 106.098 60.4297 106.717 60.9002 107.227C61.3706 107.738 62.0417 108.098 62.9134 108.307C63.6655 108.488 64.2283 108.468 64.6018 108.248C64.9809 108.023 65.1684 107.653 65.1641 107.137ZM72.1954 108.044L71.2804 108.798L71.3058 111.901L69.2291 111.402L69.1183 97.9027L71.1951 98.4013L71.259 106.188L71.9016 105.509L74.4326 103.161L76.9281 103.76L73.5251 106.899L77.3736 113.358L74.9721 112.781L72.1954 108.044ZM81.7539 111.357L83.5812 105.357L85.7947 105.889L82.2096 115.957C81.6587 117.421 80.7081 117.991 79.3578 117.667C79.0558 117.595 78.7221 117.462 78.3566 117.269L78.343 115.617L78.7364 115.737C79.2605 115.863 79.6528 115.858 79.9133 115.722C80.1795 115.593 80.3876 115.315 80.5376 114.889L80.83 114.144L77.5048 103.898L79.7439 104.436L81.7539 111.357ZM86.7004 110.781C86.6884 109.316 87.0092 108.221 87.6628 107.495C88.3164 106.763 89.1987 106.53 90.3097 106.797C91.2897 107.032 92.0845 107.574 92.6942 108.422L92.6543 103.553L94.731 104.052L94.8418 117.551L92.9616 117.1L92.851 116.091C92.2363 116.715 91.4105 116.903 90.3735 116.654C89.291 116.394 88.4099 115.735 87.7303 114.677C87.0563 113.621 86.713 112.322 86.7004 110.781ZM88.7786 111.464C88.7865 112.431 88.9722 113.23 89.3356 113.861C89.7047 114.488 90.2225 114.881 90.8891 115.041C91.738 115.245 92.3559 115.004 92.7426 114.319L92.7093 110.259C92.3213 109.406 91.7029 108.877 90.8539 108.673C90.1816 108.512 89.6654 108.663 89.3053 109.126C88.9451 109.583 88.7696 110.363 88.7786 111.464ZM99.3925 118.644L97.3157 118.145L97.2377 108.636L99.3144 109.134L99.3925 118.644ZM97.0893 106.135C97.0866 105.807 97.184 105.559 97.3817 105.39C97.585 105.222 97.8747 105.184 98.2507 105.274C98.6268 105.364 98.9182 105.542 99.1251 105.808C99.332 106.074 99.4368 106.372 99.4395 106.7C99.4421 107.022 99.3418 107.267 99.1384 107.434C98.9351 107.596 98.6454 107.632 98.2693 107.541C97.8933 107.451 97.6019 107.276 97.395 107.016C97.1938 106.751 97.0919 106.458 97.0893 106.135ZM105.075 117.306L106.976 110.974L109.121 111.489L105.994 120.229L104.191 119.796L100.883 109.511L103.036 110.028L105.075 117.306ZM112.887 121.884L110.81 121.385L110.732 111.875L112.809 112.374L112.887 121.884ZM110.583 109.375C110.581 109.047 110.678 108.798 110.876 108.63C111.079 108.462 111.369 108.423 111.745 108.514C112.121 108.604 112.412 108.782 112.619 109.048C112.826 109.314 112.931 109.611 112.934 109.939C112.936 110.262 112.836 110.506 112.633 110.674C112.429 110.836 112.139 110.871 111.763 110.781C111.387 110.691 111.096 110.516 110.889 110.255C110.688 109.991 110.586 109.697 110.583 109.375ZM117.18 113.423L117.249 114.536C117.925 113.851 118.819 113.642 119.93 113.908C121.856 114.371 122.845 115.74 122.898 118.015L122.95 124.299L120.873 123.801L120.822 117.64C120.817 117.036 120.686 116.56 120.427 116.212C120.174 115.859 119.759 115.613 119.184 115.475C118.346 115.274 117.726 115.514 117.322 116.194L117.377 122.962L115.301 122.463L115.223 112.954L117.18 113.423ZM124.846 119.939C124.833 118.463 125.16 117.366 125.825 116.648C126.496 115.926 127.39 115.699 128.506 115.967C129.56 116.22 130.392 116.797 131.002 117.698L131.089 116.763L132.96 117.212L133.036 126.431C133.046 127.679 132.675 128.573 131.923 129.112C131.177 129.652 130.163 129.768 128.881 129.46C128.203 129.297 127.538 128.992 126.886 128.543C126.24 128.101 125.747 127.605 125.407 127.056L126.379 126.009C127.024 126.941 127.813 127.52 128.748 127.744C129.437 127.909 129.98 127.847 130.375 127.556C130.771 127.271 130.966 126.756 130.96 126.012L130.955 125.37C130.362 125.912 129.567 126.064 128.57 125.824C127.487 125.564 126.598 124.909 125.901 123.859C125.21 122.81 124.858 121.503 124.846 119.939ZM126.915 120.62C126.923 121.575 127.117 122.373 127.498 123.014C127.884 123.651 128.413 124.05 129.086 124.211C129.923 124.412 130.541 124.192 130.94 123.551L130.905 119.368C130.506 118.553 129.888 118.045 129.05 117.843C128.367 117.679 127.836 117.83 127.459 118.295C127.088 118.761 126.906 119.536 126.915 120.62Z" fill="#27272A"/>
<path d="M66.8465 231.166L61.8384 229.964L61.8829 235.387L59.7207 234.868L59.6157 222.071L67.521 223.969L67.5357 225.762L61.7926 224.383L61.8238 228.189L66.8319 229.391L66.8465 231.166ZM73.2036 238.28C71.8875 237.964 70.8158 237.283 69.9883 236.236C69.1666 235.185 68.7499 233.951 68.7383 232.533L68.7361 232.269C68.7283 231.32 68.898 230.516 69.2451 229.856C69.5979 229.193 70.0945 228.73 70.7349 228.468C71.3753 228.207 72.0915 228.171 72.8834 228.361C74.1426 228.664 75.1174 229.31 75.8079 230.3C76.504 231.292 76.8583 232.544 76.8707 234.055L76.8778 234.917L70.8356 233.466C70.9047 234.266 71.1634 234.948 71.6115 235.512C72.0654 236.077 72.6313 236.441 73.3093 236.604C74.2608 236.832 75.0324 236.623 75.6241 235.975L76.7527 237.343C76.387 237.822 75.895 238.145 75.2765 238.313C74.6638 238.476 73.9728 238.465 73.2036 238.28ZM72.889 230.073C72.3192 229.936 71.8594 230.031 71.5095 230.356C71.1653 230.683 70.9478 231.201 70.857 231.91L74.8139 232.86L74.8126 232.702C74.7611 231.976 74.5715 231.392 74.2438 230.951C73.916 230.504 73.4644 230.211 72.889 230.073ZM82.7795 240.579C81.4634 240.263 80.3916 239.582 79.5642 238.535C78.7425 237.484 78.3258 236.25 78.3141 234.832L78.312 234.568C78.3042 233.619 78.4739 232.815 78.821 232.155C79.1738 231.491 79.6704 231.029 80.3108 230.767C80.9512 230.506 81.6674 230.47 82.4593 230.66C83.7185 230.963 84.6933 231.609 85.3837 232.599C86.0799 233.591 86.4342 234.843 86.4466 236.354L86.4537 237.216L80.4115 235.765C80.4806 236.565 80.7392 237.247 81.1874 237.811C81.6412 238.376 82.2072 238.74 82.8852 238.903C83.8366 239.131 84.6083 238.922 85.2 238.274L86.3286 239.642C85.9629 240.121 85.4708 240.444 84.8524 240.612C84.2396 240.774 83.5487 240.764 82.7795 240.579ZM82.4648 232.372C81.8951 232.235 81.4353 232.33 81.0854 232.655C80.7412 232.982 80.5237 233.5 80.4328 234.209L84.3897 235.159L84.3884 235.001C84.337 234.275 84.1474 233.691 83.8197 233.25C83.4919 232.803 83.0403 232.51 82.4648 232.372ZM87.8532 236.806C87.8412 235.341 88.162 234.246 88.8157 233.52C89.4693 232.788 90.3516 232.555 91.4626 232.822C92.4426 233.057 93.2374 233.599 93.8471 234.447L93.8071 229.578L95.8839 230.077L95.9946 243.576L94.1144 243.125L94.0038 242.116C93.3891 242.74 92.5633 242.928 91.5264 242.679C90.4439 242.419 89.5628 241.76 88.8831 240.702C88.2092 239.646 87.8659 238.347 87.8532 236.806ZM89.9315 237.489C89.9394 238.456 90.1251 239.255 90.4885 239.886C90.8575 240.513 91.3754 240.906 92.042 241.066C92.8909 241.27 93.5087 241.029 93.8955 240.344L93.8622 236.284C93.4742 235.431 92.8557 234.902 92.0068 234.698C91.3345 234.537 90.8183 234.688 90.4582 235.151C90.098 235.608 89.9224 236.388 89.9315 237.489ZM108.032 243.887C108.029 243.506 107.872 243.179 107.563 242.906C107.26 242.635 106.754 242.338 106.046 242.016C105.338 241.694 104.747 241.359 104.272 241.011C103.231 240.247 102.707 239.375 102.699 238.397C102.692 237.576 103.022 236.971 103.69 236.582C104.358 236.193 105.21 236.122 106.247 236.371C107.353 236.637 108.246 237.132 108.929 237.857C109.617 238.584 109.965 239.396 109.973 240.292L107.896 239.793C107.892 239.383 107.742 239.008 107.443 238.667C107.145 238.321 106.75 238.089 106.26 237.971C105.805 237.862 105.432 237.88 105.143 238.027C104.86 238.176 104.72 238.432 104.723 238.795C104.726 239.123 104.862 239.41 105.131 239.656C105.4 239.902 105.943 240.216 106.76 240.599C107.576 240.977 108.216 241.35 108.679 241.718C109.149 242.082 109.496 242.47 109.721 242.881C109.952 243.293 110.069 243.754 110.073 244.263C110.08 245.119 109.741 245.73 109.056 246.098C108.371 246.46 107.47 246.507 106.354 246.239C105.596 246.057 104.92 245.754 104.325 245.33C103.73 244.907 103.265 244.409 102.931 243.838C102.596 243.266 102.427 242.697 102.422 242.128L104.439 242.612C104.472 243.123 104.66 243.557 105.004 243.915C105.348 244.266 105.802 244.51 106.366 244.645C106.913 244.776 107.328 244.771 107.611 244.628C107.895 244.48 108.035 244.233 108.032 243.887ZM114.064 239.459C114.735 238.813 115.589 238.614 116.626 238.863C118.598 239.337 119.607 240.734 119.655 243.055L119.706 249.269L117.629 248.77L117.579 242.636C117.573 241.979 117.43 241.483 117.148 241.146C116.873 240.805 116.467 240.57 115.931 240.442C115.1 240.242 114.482 240.474 114.078 241.137L114.133 247.931L112.057 247.432L111.946 233.933L114.023 234.431L114.064 239.459ZM127.512 251.143C127.42 250.939 127.338 250.624 127.266 250.198C126.611 250.748 125.805 250.908 124.847 250.679C123.919 250.456 123.159 250.001 122.567 249.315C121.976 248.63 121.677 247.885 121.671 247.083C121.662 246.069 122.021 245.38 122.745 245.016C123.476 244.648 124.522 244.627 125.884 244.954L127.157 245.26L127.152 244.636C127.148 244.143 127.011 243.719 126.741 243.362C126.47 242.998 126.062 242.751 125.515 242.62C125.042 242.506 124.656 242.536 124.356 242.71C124.056 242.878 123.907 243.149 123.91 243.524L121.833 243.025C121.829 242.504 121.993 242.058 122.326 241.688C122.658 241.311 123.111 241.063 123.684 240.944C124.263 240.825 124.909 240.852 125.621 241.023C126.704 241.283 127.569 241.771 128.218 242.488C128.866 243.199 129.203 244.064 129.228 245.081L129.263 249.37C129.27 250.226 129.393 250.936 129.631 251.502L129.632 251.652L127.512 251.143ZM125.218 249.057C125.628 249.156 126.012 249.145 126.369 249.026C126.732 248.909 127.003 248.699 127.183 248.397L127.168 246.604L126.049 246.336C125.279 246.151 124.702 246.15 124.317 246.332C123.932 246.514 123.741 246.858 123.746 247.362C123.749 247.772 123.883 248.131 124.147 248.44C124.416 248.745 124.774 248.95 125.218 249.057ZM136.411 245.736C136.137 245.623 135.855 245.532 135.564 245.462C134.613 245.234 133.975 245.455 133.651 246.126L133.704 252.629L131.627 252.131L131.549 242.621L133.532 243.097L133.592 244.173C134.087 243.467 134.778 243.221 135.667 243.435C135.963 243.506 136.209 243.605 136.403 243.734L136.411 245.736ZM140.93 250.294L140.015 251.048L140.041 254.151L137.964 253.652L137.853 240.153L139.93 240.651L139.994 248.438L140.637 247.759L143.168 245.411L145.663 246.01L142.26 249.149L146.109 255.607L143.707 255.031L140.93 250.294ZM152.441 254.549C152.438 254.168 152.282 253.841 151.973 253.568C151.669 253.296 151.163 253 150.456 252.678C149.748 252.356 149.157 252.021 148.682 251.673C147.641 250.908 147.116 250.037 147.108 249.058C147.101 248.238 147.432 247.633 148.1 247.244C148.767 246.854 149.62 246.784 150.657 247.033C151.762 247.299 152.656 247.794 153.339 248.519C154.027 249.246 154.375 250.057 154.382 250.954L152.305 250.455C152.302 250.045 152.151 249.67 151.853 249.329C151.554 248.982 151.16 248.75 150.67 248.633C150.214 248.523 149.842 248.542 149.553 248.689C149.27 248.838 149.13 249.093 149.133 249.457C149.136 249.785 149.272 250.072 149.541 250.318C149.81 250.564 150.353 250.878 151.169 251.261C151.985 251.639 152.625 252.011 153.089 252.38C153.558 252.744 153.905 253.132 154.13 253.542C154.361 253.954 154.479 254.415 154.483 254.925C154.49 255.781 154.151 256.392 153.466 256.76C152.781 257.122 151.88 257.168 150.763 256.9C150.006 256.718 149.329 256.416 148.734 255.992C148.14 255.569 147.675 255.071 147.34 254.5C147.006 253.928 146.836 253.358 146.832 252.79L148.849 253.274C148.881 253.785 149.07 254.219 149.414 254.576C149.758 254.928 150.212 255.172 150.776 255.307C151.323 255.438 151.738 255.433 152.021 255.29C152.304 255.142 152.444 254.895 152.441 254.549Z" fill="#27272A"/>
<path d="M97.9037 389.578L99.7391 380.405L101.884 380.92L99.1176 393.027L97.0494 392.531L94.6055 382.62L92.2636 391.382L90.1868 390.883L87.2103 377.397L89.3554 377.912L91.3657 387.991L93.6627 378.946L95.4745 379.381L97.9037 389.578ZM108.779 395.347C108.686 395.143 108.604 394.828 108.532 394.401C107.877 394.952 107.071 395.112 106.114 394.882C105.185 394.659 104.425 394.205 103.834 393.519C103.243 392.833 102.944 392.089 102.937 391.286C102.929 390.273 103.287 389.584 104.012 389.22C104.742 388.851 105.789 388.831 107.15 389.158L108.424 389.463L108.419 388.839C108.414 388.347 108.277 387.922 108.007 387.565C107.737 387.202 107.328 386.955 106.781 386.824C106.309 386.71 105.922 386.74 105.622 386.914C105.322 387.081 105.174 387.353 105.177 387.728L103.1 387.229C103.096 386.708 103.26 386.262 103.592 385.891C103.925 385.515 104.378 385.267 104.951 385.147C105.53 385.029 106.176 385.055 106.888 385.226C107.97 385.486 108.836 385.975 109.484 386.692C110.133 387.403 110.469 388.267 110.495 389.285L110.53 393.574C110.537 394.43 110.659 395.14 110.897 395.706L110.898 395.855L108.779 395.347ZM106.484 393.261C106.895 393.359 107.278 393.349 107.636 393.23C107.999 393.113 108.27 392.903 108.449 392.601L108.435 390.808L107.315 390.539C106.546 390.355 105.969 390.353 105.584 390.536C105.198 390.718 105.008 391.061 105.012 391.565C105.015 391.975 105.149 392.335 105.413 392.644C105.683 392.948 106.04 393.154 106.484 393.261ZM115.403 385.139L115.422 387.451L117.055 387.843L117.068 389.425L115.435 389.033L115.479 394.341C115.482 394.704 115.552 394.985 115.69 395.181C115.834 395.374 116.086 395.513 116.445 395.599C116.684 395.657 116.926 395.686 117.17 395.686L117.184 397.338C116.712 397.359 116.257 397.317 115.818 397.212C114.223 396.829 113.418 395.732 113.403 393.922L113.359 388.534L111.837 388.169L111.824 386.587L113.346 386.952L113.327 384.641L115.403 385.139ZM122.688 397.16C123.206 397.284 123.635 397.232 123.975 397.004C124.314 396.775 124.493 396.435 124.512 395.984L126.469 396.453C126.451 397.04 126.276 397.55 125.944 397.985C125.612 398.414 125.16 398.709 124.587 398.87C124.014 399.03 123.394 399.031 122.727 398.871C121.434 398.56 120.405 397.883 119.64 396.84C118.875 395.797 118.487 394.517 118.474 392.999L118.473 392.779C118.461 391.332 118.827 390.265 119.572 389.579C120.317 388.886 121.339 388.696 122.638 389.008C123.738 389.272 124.635 389.818 125.33 390.645C126.03 391.468 126.402 392.42 126.445 393.5L124.488 393.031C124.461 392.48 124.275 391.988 123.93 391.555C123.591 391.122 123.159 390.843 122.635 390.717C121.963 390.556 121.446 390.683 121.086 391.1C120.725 391.51 120.546 392.225 120.549 393.243L120.552 393.586C120.56 394.617 120.746 395.43 121.109 396.026C121.478 396.618 122.004 396.995 122.688 397.16ZM130.216 392.037C130.887 391.392 131.741 391.193 132.778 391.442C134.749 391.915 135.759 393.313 135.806 395.634L135.857 401.847L133.78 401.349L133.73 395.214C133.725 394.558 133.581 394.062 133.3 393.725C133.024 393.384 132.619 393.149 132.083 393.021C131.251 392.821 130.633 393.053 130.229 393.716L130.285 400.51L128.208 400.011L128.098 386.512L130.174 387.01L130.216 392.037ZM147.834 402.144C147.831 401.763 147.675 401.436 147.366 401.163C147.062 400.892 146.557 400.595 145.849 400.273C145.141 399.951 144.55 399.616 144.075 399.268C143.034 398.503 142.509 397.632 142.501 396.653C142.495 395.833 142.825 395.228 143.493 394.839C144.161 394.45 145.013 394.379 146.05 394.628C147.155 394.894 148.049 395.389 148.732 396.114C149.42 396.841 149.768 397.652 149.775 398.549L147.699 398.05C147.695 397.64 147.544 397.265 147.246 396.924C146.947 396.578 146.553 396.346 146.063 396.228C145.607 396.119 145.235 396.137 144.946 396.284C144.663 396.433 144.523 396.689 144.526 397.052C144.529 397.38 144.665 397.667 144.934 397.913C145.203 398.159 145.746 398.473 146.562 398.856C147.378 399.234 148.018 399.607 148.482 399.975C148.951 400.339 149.298 400.727 149.524 401.137C149.754 401.55 149.872 402.011 149.876 402.52C149.883 403.376 149.544 403.987 148.859 404.355C148.174 404.717 147.273 404.764 146.156 404.496C145.399 404.314 144.722 404.011 144.128 403.587C143.533 403.164 143.068 402.666 142.734 402.095C142.399 401.523 142.229 400.953 142.225 400.385L144.242 400.869C144.274 401.38 144.463 401.814 144.807 402.172C145.151 402.523 145.605 402.767 146.169 402.902C146.716 403.033 147.131 403.028 147.414 402.885C147.697 402.737 147.837 402.49 147.834 402.144ZM157.484 406.11C156.88 406.702 156.017 406.863 154.895 406.593C153.892 406.353 153.129 405.868 152.606 405.14C152.088 404.414 151.824 403.479 151.815 402.337L151.764 396.176L153.841 396.674L153.891 402.809C153.901 404.016 154.393 404.736 155.368 404.97C156.376 405.212 157.054 405.004 157.401 404.344L157.345 397.516L159.422 398.014L159.5 407.524L157.543 407.054L157.484 406.11ZM163.639 399.027L163.708 400.14C164.385 399.454 165.279 399.245 166.39 399.512C168.315 399.974 169.305 401.343 169.357 403.619L169.409 409.903L167.332 409.404L167.282 403.243C167.277 402.64 167.145 402.163 166.886 401.815C166.633 401.462 166.219 401.216 165.643 401.078C164.806 400.877 164.185 401.117 163.781 401.797L163.837 408.565L161.76 408.066L161.682 398.557L163.639 399.027ZM176.487 404.058C176.213 403.946 175.931 403.855 175.64 403.785C174.689 403.557 174.051 403.778 173.727 404.448L173.78 410.952L171.703 410.453L171.625 400.944L173.608 401.42L173.668 402.496C174.163 401.79 174.854 401.544 175.743 401.757C176.04 401.828 176.285 401.928 176.479 402.057L176.487 404.058ZM180.245 412.504L178.168 412.006L178.09 402.496L180.167 402.995L180.245 412.504ZM177.942 399.996C177.939 399.668 178.037 399.419 178.234 399.25C178.438 399.083 178.727 399.044 179.103 399.134C179.479 399.224 179.771 399.403 179.978 399.669C180.185 399.935 180.29 400.232 180.292 400.56C180.295 400.882 180.195 401.127 179.991 401.295C179.788 401.456 179.498 401.492 179.122 401.402C178.746 401.311 178.455 401.136 178.248 400.876C178.047 400.611 177.945 400.318 177.942 399.996ZM187.851 411.751C187.848 411.371 187.692 411.044 187.383 410.77C187.079 410.499 186.573 410.202 185.866 409.88C185.158 409.558 184.567 409.223 184.092 408.875C183.051 408.111 182.526 407.239 182.518 406.261C182.511 405.44 182.842 404.836 183.51 404.446C184.177 404.057 185.03 403.987 186.067 404.236C187.172 404.501 188.066 404.996 188.749 405.722C189.437 406.448 189.785 407.26 189.792 408.156L187.715 407.658C187.712 407.247 187.561 406.872 187.263 406.531C186.964 406.185 186.57 405.953 186.08 405.835C185.624 405.726 185.252 405.745 184.963 405.892C184.68 406.04 184.54 406.296 184.543 406.659C184.545 406.987 184.681 407.274 184.951 407.52C185.22 407.766 185.763 408.081 186.579 408.464C187.395 408.841 188.035 409.214 188.499 409.582C188.968 409.946 189.315 410.334 189.54 410.745C189.771 411.157 189.889 411.618 189.893 412.127C189.9 412.983 189.561 413.594 188.876 413.962C188.191 414.324 187.29 414.371 186.173 414.103C185.415 413.921 184.739 413.618 184.144 413.195C183.549 412.771 183.085 412.274 182.75 411.702C182.416 411.131 182.246 410.561 182.242 409.992L184.259 410.477C184.291 410.987 184.48 411.421 184.824 411.779C185.168 412.13 185.622 412.374 186.186 412.509C186.733 412.641 187.148 412.635 187.431 412.493C187.714 412.344 187.854 412.097 187.851 411.751ZM195.98 416.457C194.664 416.141 193.592 415.46 192.765 414.413C191.943 413.362 191.526 412.128 191.515 410.71L191.512 410.446C191.505 409.497 191.674 408.693 192.021 408.033C192.374 407.37 192.871 406.907 193.511 406.646C194.152 406.384 194.868 406.349 195.66 406.539C196.919 406.841 197.894 407.487 198.584 408.478C199.28 409.469 199.635 410.721 199.647 412.233L199.654 413.094L193.612 411.643C193.681 412.443 193.94 413.125 194.388 413.689C194.842 414.254 195.408 414.618 196.086 414.781C197.037 415.009 197.809 414.8 198.4 414.152L199.529 415.52C199.163 415.999 198.671 416.323 198.053 416.49C197.44 416.653 196.749 416.642 195.98 416.457ZM195.665 408.25C195.095 408.114 194.636 408.208 194.286 408.533C193.942 408.86 193.724 409.378 193.633 410.087L197.59 411.037L197.589 410.879C197.537 410.153 197.348 409.57 197.02 409.128C196.692 408.681 196.241 408.389 195.665 408.25Z" fill="#27272A"/>
<path d="M67.6658 128.571L63.6662 127.611L63.7598 139.018L62.1274 138.626L62.0338 127.219L58.0428 126.261L58.0314 124.872L67.6544 127.182L67.6658 128.571ZM68.0444 135.214C68.0368 134.282 68.2065 133.487 68.5537 132.828C68.9065 132.17 69.3975 131.714 70.0266 131.462C70.6614 131.211 71.3861 131.183 72.2009 131.379C73.46 131.681 74.4807 132.373 75.2629 133.456C76.0508 134.54 76.4509 135.826 76.4631 137.314L76.464 137.428C76.4716 138.354 76.3047 139.144 75.9632 139.799C75.6273 140.449 75.1392 140.902 74.4987 141.158C73.864 141.415 73.1307 141.444 72.2989 141.244C71.0454 140.943 70.0247 140.251 69.2368 139.167C68.4546 138.084 68.0575 136.805 68.0454 135.328L68.0444 135.214ZM69.6356 135.789C69.6442 136.844 69.8876 137.747 70.3658 138.499C70.8496 139.253 71.4903 139.725 72.288 139.917C73.0913 140.11 73.7268 139.941 74.1944 139.41C74.662 138.873 74.891 138.021 74.8814 136.855C74.8728 135.812 74.6238 134.911 74.1342 134.15C73.6503 133.385 73.0095 132.906 72.2118 132.715C71.4313 132.527 70.8043 132.695 70.331 133.219C69.8576 133.743 69.6258 134.6 69.6356 135.789ZM78.0607 137.627C78.0487 136.168 78.3752 135.077 79.0403 134.354C79.7053 133.625 80.5819 133.391 81.6701 133.652C82.7526 133.912 83.6132 134.499 84.2519 135.412L84.2112 130.455L85.7923 130.835L85.903 144.335L84.4502 143.986L84.3649 142.948C83.739 143.593 82.862 143.78 81.7339 143.509C80.6628 143.252 79.7845 142.591 79.0991 141.526C78.4194 140.462 78.0736 139.204 78.0617 137.75L78.0607 137.627ZM79.6432 138.192C79.6521 139.27 79.8755 140.165 80.3135 140.879C80.7515 141.592 81.3522 142.04 82.1157 142.224C83.1185 142.464 83.8468 142.177 84.3007 141.362L84.2649 136.994C83.7846 135.984 83.0545 135.362 82.0745 135.126C81.2997 134.94 80.6983 135.103 80.2703 135.614C79.8424 136.125 79.6333 136.985 79.6432 138.192ZM94.0732 146.296C93.9805 146.087 93.9037 145.735 93.8428 145.241C93.1142 145.849 92.24 146.031 91.2202 145.786C90.3086 145.568 89.5572 145.124 88.9661 144.456C88.3805 143.783 88.0844 143.04 88.0778 142.225C88.0696 141.235 88.428 140.555 89.1528 140.185C89.8832 139.811 90.9122 139.783 92.2397 140.102L93.7781 140.471L93.7719 139.724C93.7673 139.156 93.5983 138.665 93.2651 138.252C92.9319 137.832 92.4434 137.546 91.7996 137.391C91.2355 137.256 90.7638 137.288 90.3845 137.49C90.0052 137.691 89.8172 138 89.8206 138.416L88.231 138.034C88.2271 137.56 88.3858 137.142 88.7069 136.78C89.0337 136.414 89.4752 136.169 90.0315 136.045C90.5934 135.923 91.2105 135.943 91.8828 136.104C92.9483 136.36 93.7852 136.836 94.3936 137.531C95.0021 138.221 95.3216 139.049 95.3523 140.016L95.3882 144.393C95.3953 145.266 95.5093 145.986 95.73 146.553L95.7312 146.694L94.0732 146.296ZM91.4393 144.427C91.935 144.546 92.404 144.527 92.8462 144.37C93.2885 144.213 93.6076 143.947 93.8035 143.574L93.7875 141.622L92.5483 141.325C90.6112 140.86 89.6474 141.21 89.6569 142.376C89.6611 142.886 89.8296 143.324 90.1624 143.691C90.4952 144.057 90.9209 144.302 91.4393 144.427ZM100.754 145.523L102.849 138.912L104.541 139.318L100.914 149.403C100.351 150.847 99.4432 151.418 98.1898 151.117L97.8905 151.019L97.2998 150.763L97.289 149.445L97.7166 149.583C98.2522 149.711 98.6672 149.7 98.9616 149.548C99.2618 149.398 99.5063 149.051 99.6951 148.505L100.038 147.623L96.6616 137.427L98.3879 137.841L100.754 145.523ZM105.085 151.483L104.182 150.635C104.711 149.996 104.984 149.272 105 148.463L104.988 146.995L106.535 147.367L106.545 148.641C106.55 149.233 106.413 149.791 106.133 150.314C105.858 150.839 105.509 151.228 105.085 151.483ZM117.926 152.022L116.336 151.641L116.247 140.804L113.069 141.243L113.057 139.767L117.572 139.105L117.82 139.165L117.926 152.022ZM130.316 149.55C130.331 151.454 130.027 152.793 129.402 153.567C128.777 154.341 127.792 154.567 126.448 154.244C125.12 153.925 124.134 153.238 123.488 152.183C122.843 151.121 122.501 149.688 122.463 147.884L122.446 145.713C122.43 143.832 122.735 142.511 123.36 141.749C123.985 140.987 124.972 140.768 126.323 141.092C127.662 141.413 128.651 142.092 129.291 143.129C129.93 144.159 130.266 145.597 130.298 147.441L130.316 149.55ZM128.716 146.947C128.705 145.57 128.509 144.523 128.128 143.806C127.746 143.083 127.148 142.623 126.334 142.428C125.525 142.233 124.938 142.405 124.572 142.943C124.207 143.481 124.024 144.399 124.023 145.697L124.045 148.299C124.056 149.682 124.258 150.751 124.651 151.506C125.05 152.256 125.645 152.727 126.437 152.917C127.217 153.104 127.793 152.932 128.164 152.402C128.541 151.872 128.732 150.942 128.738 149.61L128.716 146.947ZM132.575 154.689C132.573 154.408 132.651 154.192 132.809 154.043C132.973 153.895 133.217 153.86 133.542 153.938C133.866 154.016 134.112 154.169 134.279 154.396C134.451 154.625 134.539 154.879 134.541 155.161C134.543 155.43 134.46 155.635 134.29 155.776C134.127 155.918 133.882 155.95 133.558 155.872C133.233 155.794 132.987 155.644 132.82 155.423C132.659 155.203 132.578 154.958 132.575 154.689ZM144.759 153.017C144.774 154.922 144.47 156.261 143.845 157.035C143.22 157.809 142.235 158.034 140.891 157.711C139.563 157.393 138.577 156.706 137.931 155.65C137.286 154.589 136.944 153.156 136.907 151.352L136.889 149.181C136.873 147.3 137.178 145.978 137.803 145.216C138.428 144.454 139.416 144.235 140.766 144.559C142.105 144.881 143.094 145.56 143.734 146.596C144.373 147.627 144.709 149.064 144.741 150.908L144.759 153.017ZM143.159 150.414C143.148 149.037 142.952 147.99 142.571 147.273C142.19 146.55 141.592 146.091 140.777 145.895C139.968 145.701 139.381 145.873 139.015 146.411C138.65 146.949 138.467 147.867 138.467 149.165L138.488 151.766C138.499 153.149 138.701 154.218 139.094 154.973C139.493 155.724 140.088 156.194 140.88 156.384C141.66 156.572 142.236 156.4 142.607 155.869C142.984 155.34 143.175 154.409 143.181 153.077L143.159 150.414ZM154.587 155.377C154.603 157.281 154.298 158.62 153.673 159.394C153.048 160.168 152.064 160.394 150.719 160.071C149.391 159.752 148.405 159.065 147.759 158.01C147.114 156.948 146.772 155.515 146.735 153.711L146.717 151.54C146.702 149.66 147.006 148.338 147.631 147.576C148.256 146.814 149.244 146.595 150.594 146.919C151.933 147.24 152.922 147.919 153.562 148.956C154.202 149.987 154.537 151.424 154.57 153.268L154.587 155.377ZM152.988 152.774C152.976 151.397 152.78 150.35 152.399 149.633C152.018 148.91 151.42 148.45 150.605 148.255C149.796 148.06 149.209 148.232 148.844 148.77C148.478 149.308 148.295 150.226 148.295 151.524L148.316 154.126C148.327 155.509 148.53 156.578 148.922 157.333C149.321 158.083 149.916 158.554 150.708 158.744C151.489 158.931 152.064 158.759 152.435 158.229C152.812 157.699 153.003 156.769 153.009 155.437L152.988 152.774Z" fill="#52525B"/>
<path d="M68.699 254.565L64.6994 253.605L64.793 265.013L63.1606 264.621L63.067 253.213L59.076 252.255L59.0646 250.866L68.6876 253.176L68.699 254.565ZM69.0776 261.208C69.07 260.276 69.2397 259.481 69.5869 258.822C69.9397 258.164 70.4307 257.709 71.0598 257.456C71.6946 257.205 72.4193 257.177 73.2341 257.373C74.4932 257.675 75.5139 258.368 76.2961 259.45C77.084 260.534 77.4841 261.82 77.4963 263.308L77.4972 263.422C77.5048 264.348 77.3379 265.138 76.9964 265.793C76.6605 266.444 76.1724 266.897 75.5319 267.152C74.8972 267.409 74.1639 267.438 73.3321 267.238C72.0786 266.937 71.0579 266.245 70.27 265.161C69.4878 264.078 69.0907 262.799 69.0786 261.322L69.0776 261.208ZM70.6688 261.783C70.6775 262.838 70.9208 263.741 71.399 264.493C71.8828 265.247 72.5235 265.719 73.3212 265.911C74.1245 266.104 74.76 265.935 75.2276 265.404C75.6952 264.867 75.9242 264.015 75.9146 262.85C75.906 261.807 75.657 260.905 75.1674 260.144C74.6835 259.379 74.0427 258.9 73.245 258.709C72.4645 258.521 71.8375 258.69 71.3642 259.213C70.8908 259.737 70.659 260.594 70.6688 261.783ZM80.9271 259.395L80.9785 260.46C81.6498 259.803 82.5609 259.612 83.7118 259.888C85.0051 260.199 85.8895 260.92 86.3651 262.052C86.669 261.668 87.0648 261.395 87.5525 261.231C88.0458 261.069 88.6287 261.069 89.301 261.23C91.3293 261.717 92.3696 263.069 92.4219 265.286L92.4742 271.658L90.8931 271.279L90.8416 265.003C90.8361 264.324 90.6809 263.781 90.3762 263.374C90.0715 262.962 89.563 262.67 88.8508 262.499C88.264 262.358 87.7783 262.423 87.3939 262.693C87.0094 262.958 86.7883 263.387 86.7306 263.981L86.7824 270.292L85.1928 269.91L85.1417 263.679C85.1303 262.296 84.4666 261.447 83.1505 261.131C82.1135 260.882 81.4079 261.166 81.0336 261.982L81.0906 268.925L79.5095 268.546L79.4315 259.036L80.9271 259.395ZM94.4086 267.29C94.401 266.358 94.5707 265.562 94.9179 264.903C95.2707 264.245 95.7617 263.79 96.3908 263.538C97.0256 263.286 97.7503 263.259 98.5651 263.454C99.8242 263.757 100.845 264.449 101.627 265.532C102.415 266.615 102.815 267.901 102.827 269.39L102.828 269.504C102.836 270.43 102.669 271.22 102.327 271.875C101.992 272.525 101.503 272.978 100.863 273.234C100.228 273.491 99.4949 273.519 98.6631 273.319C97.4096 273.019 96.3889 272.326 95.601 271.242C94.8188 270.16 94.4217 268.88 94.4096 267.404L94.4086 267.29ZM95.9998 267.865C96.0084 268.919 96.2518 269.823 96.73 270.575C97.2138 271.328 97.8545 271.801 98.6522 271.992C99.4555 272.185 100.091 272.016 100.559 271.485C101.026 270.948 101.255 270.097 101.246 268.931C101.237 267.888 100.988 266.986 100.498 266.225C100.014 265.46 99.3737 264.982 98.576 264.79C97.7955 264.603 97.1685 264.771 96.6952 265.295C96.2218 265.819 95.99 266.675 95.9998 267.865ZM109.253 267.652C109.013 267.553 108.754 267.471 108.475 267.403C107.438 267.155 106.738 267.44 106.375 268.259L106.43 275.009L104.849 274.629L104.771 265.12L106.309 265.489L106.344 266.594C106.856 265.869 107.587 265.62 108.539 265.849C108.846 265.923 109.08 266.02 109.24 266.14L109.253 267.652ZM115.184 269.076C114.944 268.977 114.685 268.894 114.406 268.827C113.369 268.578 112.669 268.864 112.306 269.683L112.361 276.433L110.78 276.053L110.702 266.544L112.24 266.913L112.275 268.018C112.787 267.293 113.518 267.044 114.47 267.273C114.777 267.347 115.011 267.444 115.171 267.564L115.184 269.076ZM116.082 272.493C116.074 271.561 116.244 270.766 116.591 270.106C116.944 269.448 117.435 268.993 118.064 268.741C118.699 268.49 119.424 268.462 120.238 268.658C121.497 268.96 122.518 269.652 123.3 270.735C124.088 271.819 124.488 273.105 124.501 274.593L124.501 274.707C124.509 275.633 124.342 276.423 124.001 277.078C123.665 277.728 123.177 278.181 122.536 278.437C121.901 278.694 121.168 278.722 120.336 278.523C119.083 278.222 118.062 277.529 117.274 276.446C116.492 275.363 116.095 274.084 116.083 272.607L116.082 272.493ZM117.673 273.068C117.682 274.122 117.925 275.026 118.403 275.778C118.887 276.532 119.528 277.004 120.325 277.196C121.129 277.388 121.764 277.219 122.232 276.688C122.699 276.152 122.928 275.3 122.919 274.134C122.91 273.091 122.661 272.189 122.172 271.429C121.688 270.663 121.047 270.185 120.249 269.994C119.469 269.806 118.842 269.974 118.368 270.498C117.895 271.022 117.663 271.878 117.673 273.068ZM134.691 279.557L136.409 272.715L137.99 273.095L135.376 281.958L134.094 281.65L131.787 273.904L129.659 280.585L128.377 280.278L125.615 270.124L127.188 270.501L129.067 278.057L131.162 271.456L132.435 271.761L134.691 279.557ZM138.593 285.274L137.691 284.426C138.22 283.787 138.493 283.063 138.509 282.254L138.497 280.786L140.044 281.158L140.054 282.432C140.059 283.024 139.921 283.581 139.641 284.105C139.367 284.63 139.018 285.019 138.593 285.274ZM153.996 280.981C154.012 282.886 153.707 284.225 153.083 284.999C152.458 285.772 151.473 285.998 150.128 285.675C148.801 285.356 147.814 284.669 147.169 283.614C146.523 282.552 146.182 281.12 146.144 279.315L146.126 277.145C146.111 275.264 146.416 273.942 147.041 273.18C147.666 272.418 148.653 272.199 150.003 272.523C151.342 272.845 152.332 273.524 152.971 274.56C153.611 275.591 153.947 277.028 153.979 278.872L153.996 280.981ZM152.397 278.378C152.386 277.001 152.19 275.954 151.808 275.237C151.427 274.514 150.829 274.055 150.014 273.859C149.205 273.665 148.618 273.837 148.253 274.375C147.888 274.913 147.705 275.831 147.704 277.129L147.726 279.73C147.737 281.113 147.939 282.182 148.332 282.937C148.73 283.688 149.326 284.158 150.118 284.348C150.898 284.535 151.474 284.364 151.845 283.833C152.221 283.304 152.413 282.373 152.419 281.041L152.397 278.378ZM162.08 282.755C161.753 283.08 161.359 283.31 160.9 283.446C160.446 283.582 159.946 283.585 159.399 283.454C158.681 283.281 158.053 282.949 157.514 282.457C156.981 281.967 156.567 281.359 156.271 280.633C155.975 279.901 155.824 279.136 155.817 278.34C155.81 277.484 155.96 276.751 156.268 276.141C156.582 275.532 157.027 275.116 157.606 274.892C158.184 274.668 158.86 274.649 159.635 274.835C160.866 275.131 161.838 275.838 162.552 276.957C163.272 278.071 163.639 279.446 163.652 281.08L163.656 281.555C163.677 284.045 163.213 285.749 162.265 286.668C161.318 287.581 159.878 287.82 157.947 287.386L157.639 287.312L157.628 285.941L157.961 286.021C159.266 286.31 160.266 286.203 160.961 285.697C161.656 285.186 162.029 284.205 162.08 282.755ZM159.644 282.171C160.174 282.298 160.66 282.248 161.101 282.02C161.549 281.794 161.873 281.46 162.074 281.017L162.069 280.367C162.06 279.3 161.828 278.379 161.372 277.603C160.917 276.827 160.344 276.356 159.655 276.191C158.96 276.024 158.404 276.165 157.986 276.615C157.569 277.059 157.364 277.729 157.372 278.625C157.379 279.498 157.587 280.267 157.996 280.933C158.411 281.594 158.96 282.006 159.644 282.171ZM166.084 288.48C166.082 288.198 166.16 287.983 166.318 287.834C166.482 287.686 166.726 287.651 167.051 287.729C167.375 287.807 167.621 287.96 167.788 288.187C167.96 288.415 168.048 288.67 168.05 288.951C168.052 289.221 167.969 289.426 167.799 289.567C167.635 289.709 167.391 289.741 167.066 289.663C166.742 289.585 166.496 289.435 166.329 289.214C166.168 288.994 166.087 288.749 166.084 288.48ZM178.663 292.35L170.51 290.393L170.5 289.224L174.767 285.336C175.399 284.745 175.833 284.247 176.068 283.842C176.309 283.432 176.428 282.978 176.424 282.48C176.418 281.812 176.217 281.217 175.821 280.695C175.424 280.173 174.898 279.833 174.243 279.676C173.457 279.487 172.846 279.571 172.411 279.929C171.982 280.282 171.771 280.869 171.777 281.689L170.196 281.309C170.187 280.132 170.546 279.268 171.275 278.718C172.01 278.169 172.996 278.043 174.232 278.34C175.389 278.618 176.306 279.151 176.983 279.939C177.66 280.721 178.003 281.631 178.012 282.668C178.022 283.928 177.254 285.24 175.707 286.606L172.405 289.523L178.652 291.023L178.663 292.35ZM188.096 289.168C188.111 291.072 187.807 292.411 187.182 293.185C186.557 293.959 185.572 294.185 184.228 293.862C182.9 293.543 181.914 292.856 181.268 291.8C180.623 290.739 180.281 289.306 180.244 287.502L180.226 285.331C180.21 283.45 180.515 282.129 181.14 281.367C181.765 280.604 182.753 280.385 184.103 280.71C185.442 281.031 186.431 281.71 187.071 282.747C187.71 283.777 188.046 285.215 188.078 287.059L188.096 289.168ZM186.496 286.565C186.485 285.188 186.289 284.141 185.908 283.424C185.527 282.7 184.929 282.241 184.114 282.046C183.305 281.851 182.718 282.023 182.352 282.561C181.987 283.099 181.804 284.017 181.804 285.315L181.825 287.917C181.836 289.299 182.038 290.368 182.431 291.124C182.83 291.874 183.425 292.344 184.217 292.535C184.997 292.722 185.573 292.55 185.944 292.02C186.321 291.49 186.512 290.559 186.518 289.228L186.496 286.565Z" fill="#52525B"/>
<path d="M96.1701 409.39L91.1142 420.035L89.4562 419.637L94.4985 409.409L87.764 407.793L87.7531 406.457L96.1626 408.476L96.1701 409.39ZM109.63 418.84L104.408 417.586L104.455 423.238L102.814 422.844L102.709 410.047L110.418 411.898L110.429 413.287L104.361 411.83L104.397 416.207L109.619 417.46L109.63 418.84ZM115.891 426.159C114.638 425.858 113.614 425.191 112.821 424.159C112.028 423.12 111.626 421.892 111.614 420.474L111.611 420.175C111.604 419.232 111.771 418.433 112.112 417.778C112.459 417.119 112.944 416.656 113.568 416.391C114.197 416.121 114.879 416.074 115.614 416.25C116.816 416.539 117.754 417.171 118.427 418.145C119.1 419.12 119.443 420.366 119.455 421.883L119.461 422.56L113.197 421.056C113.227 421.999 113.498 422.821 114.01 423.523C114.528 424.22 115.179 424.663 115.966 424.852C116.524 424.986 116.996 424.982 117.381 424.841C117.767 424.7 118.103 424.471 118.391 424.154L119.363 425.159C118.598 426.197 117.441 426.531 115.891 426.159ZM115.625 417.586C114.986 417.433 114.453 417.545 114.024 417.921C113.595 418.292 113.332 418.896 113.237 419.732L117.869 420.844L117.868 420.721C117.816 419.884 117.594 419.194 117.203 418.649C116.812 418.099 116.286 417.745 115.625 417.586ZM129.124 424.52C129.136 425.973 128.821 427.064 128.178 427.793C127.536 428.516 126.668 428.746 125.574 428.483C124.406 428.203 123.499 427.561 122.854 426.559L122.786 427.639L121.334 427.29L121.223 413.79L122.804 414.17L122.845 419.206C123.477 418.545 124.354 418.349 125.476 418.618C126.598 418.888 127.482 419.536 128.128 420.562C128.778 421.589 129.11 422.862 129.123 424.379L129.124 424.52ZM127.541 423.956C127.532 422.849 127.317 421.943 126.896 421.24C126.475 420.536 125.875 420.091 125.094 419.904C124.052 419.653 123.306 419.972 122.859 420.858L122.893 424.971C123.385 426.084 124.144 426.763 125.17 427.009C125.927 427.191 126.514 427.031 126.931 426.529C127.348 426.026 127.551 425.169 127.541 423.956ZM131.131 432.186L130.229 431.338C130.758 430.699 131.031 429.975 131.047 429.166L131.035 427.698L132.582 428.069L132.592 429.344C132.597 429.936 132.459 430.493 132.179 431.016C131.905 431.541 131.556 431.931 131.131 432.186ZM146.534 427.893C146.55 429.797 146.245 431.136 145.621 431.91C144.996 432.684 144.011 432.91 142.666 432.587C141.339 432.268 140.352 431.581 139.707 430.526C139.061 429.464 138.72 428.031 138.682 426.227L138.664 424.056C138.649 422.175 138.954 420.854 139.579 420.092C140.204 419.33 141.191 419.111 142.541 419.435C143.88 419.756 144.87 420.435 145.509 421.472C146.149 422.502 146.485 423.94 146.517 425.784L146.534 427.893ZM144.935 425.29C144.924 423.913 144.728 422.866 144.346 422.149C143.965 421.426 143.367 420.966 142.552 420.771C141.743 420.576 141.156 420.748 140.791 421.286C140.426 421.824 140.243 422.742 140.242 424.04L140.264 426.642C140.275 428.025 140.477 429.094 140.87 429.849C141.268 430.599 141.864 431.07 142.656 431.26C143.436 431.447 144.012 431.275 144.383 430.745C144.759 430.215 144.951 429.285 144.957 427.953L144.935 425.29ZM150.845 427.2L152.032 427.485C152.779 427.652 153.364 427.591 153.788 427.301C154.212 427.011 154.421 426.532 154.416 425.864C154.404 424.364 153.671 423.44 152.218 423.091C151.534 422.927 150.989 422.998 150.582 423.304C150.181 423.605 149.983 424.087 149.989 424.749L148.408 424.369C148.399 423.356 148.751 422.601 149.464 422.105C150.182 421.605 151.096 421.489 152.207 421.755C153.381 422.037 154.304 422.577 154.976 423.376C155.647 424.175 155.988 425.142 155.997 426.279C156.002 426.836 155.83 427.332 155.481 427.769C155.137 428.207 154.665 428.482 154.063 428.595C154.749 428.982 155.279 429.478 155.653 430.082C156.033 430.688 156.227 431.363 156.233 432.107C156.242 433.256 155.885 434.079 155.161 434.578C154.437 435.077 153.492 435.186 152.324 434.905C151.156 434.625 150.202 434.071 149.461 433.245C148.727 432.419 148.355 431.473 148.346 430.407L149.936 430.788C149.941 431.462 150.159 432.053 150.59 432.559C151.021 433.066 151.595 433.406 152.313 433.578C153.076 433.762 153.659 433.697 154.06 433.384C154.461 433.071 154.658 432.53 154.652 431.763C154.646 431.019 154.419 430.394 153.971 429.889C153.524 429.384 152.881 429.025 152.043 428.812L150.855 428.527L150.845 427.2ZM158.622 435.391C158.62 435.11 158.698 434.895 158.856 434.746C159.02 434.598 159.264 434.563 159.589 434.641C159.913 434.719 160.159 434.871 160.326 435.099C160.498 435.327 160.586 435.582 160.588 435.863C160.59 436.133 160.507 436.338 160.337 436.478C160.173 436.62 159.929 436.652 159.604 436.574C159.28 436.496 159.034 436.347 158.867 436.125C158.706 435.906 158.625 435.661 158.622 435.391ZM171.201 439.262L163.048 437.305L163.038 436.136L167.305 432.248C167.937 431.657 168.371 431.159 168.606 430.753C168.847 430.344 168.966 429.89 168.962 429.392C168.956 428.724 168.755 428.129 168.359 427.607C167.962 427.084 167.436 426.745 166.781 426.587C165.995 426.399 165.384 426.483 164.949 426.841C164.52 427.194 164.309 427.78 164.315 428.601L162.734 428.221C162.725 427.043 163.084 426.179 163.813 425.629C164.548 425.081 165.534 424.955 166.77 425.252C167.927 425.529 168.844 426.062 169.521 426.851C170.198 427.633 170.541 428.543 170.55 429.58C170.56 430.84 169.792 432.152 168.245 433.518L164.943 436.435L171.19 437.935L171.201 439.262ZM180.634 436.08C180.649 437.984 180.345 439.323 179.72 440.097C179.095 440.871 178.11 441.096 176.766 440.773C175.438 440.455 174.452 439.768 173.806 438.712C173.161 437.651 172.819 436.218 172.782 434.414L172.764 432.243C172.748 430.362 173.053 429.041 173.678 428.278C174.303 427.516 175.291 427.297 176.641 427.621C177.98 427.943 178.969 428.622 179.609 429.658C180.248 430.689 180.584 432.126 180.616 433.97L180.634 436.08ZM179.034 433.476C179.023 432.099 178.827 431.052 178.446 430.335C178.065 429.612 177.467 429.153 176.652 428.957C175.843 428.763 175.256 428.935 174.89 429.473C174.525 430.011 174.342 430.929 174.342 432.227L174.363 434.828C174.374 436.211 174.576 437.28 174.969 438.035C175.368 438.786 175.963 439.256 176.755 439.446C177.535 439.634 178.111 439.462 178.482 438.931C178.859 438.402 179.05 437.471 179.056 436.139L179.034 433.476Z" fill="#3F3F46"/>
<g filter="url(#filter3_dd)">
<path d="M323.045 478.409L374.715 513.197L348.495 514.522L337.493 537.44L323.045 478.409Z" fill="#27272A"/>
<path d="M337.717 534.495L324.493 480.464L371.787 512.305L348.223 513.496L347.788 513.518L347.605 513.898L337.717 534.495Z" stroke="white" stroke-width="2"/>
</g>
<mask id="path-17-inside-1" fill="white">
<path d="M374.162 295.45C377.528 296.258 380.826 298.074 383.64 300.668C386.454 303.263 388.658 306.52 389.972 310.027C391.286 313.533 391.652 317.133 391.023 320.37C390.394 323.607 388.799 326.336 386.44 328.212C384.08 330.088 381.061 331.026 377.766 330.909C374.471 330.792 371.047 329.624 367.926 327.553C364.806 325.482 362.13 322.601 360.237 319.274C358.343 315.948 357.318 312.325 357.289 308.864L360.802 309.707C360.825 312.454 361.639 315.329 363.141 317.969C364.644 320.608 366.767 322.895 369.243 324.538C371.719 326.181 374.437 327.108 377.052 327.201C379.667 327.294 382.062 326.549 383.935 325.061C385.807 323.572 387.073 321.406 387.572 318.838C388.071 316.269 387.78 313.413 386.738 310.63C385.695 307.847 383.946 305.263 381.713 303.204C379.48 301.145 376.862 299.703 374.192 299.062L374.162 295.45Z"/>
</mask>
<path d="M374.162 295.45C377.528 296.258 380.826 298.074 383.64 300.668C386.454 303.263 388.658 306.52 389.972 310.027C391.286 313.533 391.652 317.133 391.023 320.37C390.394 323.607 388.799 326.336 386.44 328.212C384.08 330.088 381.061 331.026 377.766 330.909C374.471 330.792 371.047 329.624 367.926 327.553C364.806 325.482 362.13 322.601 360.237 319.274C358.343 315.948 357.318 312.325 357.289 308.864L360.802 309.707C360.825 312.454 361.639 315.329 363.141 317.969C364.644 320.608 366.767 322.895 369.243 324.538C371.719 326.181 374.437 327.108 377.052 327.201C379.667 327.294 382.062 326.549 383.935 325.061C385.807 323.572 387.073 321.406 387.572 318.838C388.071 316.269 387.78 313.413 386.738 310.63C385.695 307.847 383.946 305.263 381.713 303.204C379.48 301.145 376.862 299.703 374.192 299.062L374.162 295.45Z" stroke="#115E59" stroke-width="8" mask="url(#path-17-inside-1)"/>
<defs>
<filter id="filter0_dd" x="0.325348" y="49.4742" width="445.488" height="249.823" filterUnits="userSpaceOnUse" color-interpolation-filters="sRGB">
<feFlood flood-opacity="0" result="BackgroundImageFix"/>
<feColorMatrix in="SourceAlpha" type="matrix" values="0 0 0 0 0 0 0 0 0 0 0 0 0 0 0 0 0 0 127 0"/>
<feOffset dy="10"/>
<feGaussianBlur stdDeviation="5"/>
<feColorMatrix type="matrix" values="0 0 0 0 0 0 0 0 0 0 0 0 0 0 0 0 0 0 0.04 0"/>
<feBlend mode="normal" in2="BackgroundImageFix" result="effect1_dropShadow"/>
<feColorMatrix in="SourceAlpha" type="matrix" values="0 0 0 0 0 0 0 0 0 0 0 0 0 0 0 0 0 0 127 0"/>
<feOffset dy="20"/>
<feGaussianBlur stdDeviation="12.5"/>
<feColorMatrix type="matrix" values="0 0 0 0 0 0 0 0 0 0 0 0 0 0 0 0 0 0 0.1 0"/>
<feBlend mode="normal" in2="effect1_dropShadow" result="effect2_dropShadow"/>
<feBlend mode="normal" in="SourceGraphic" in2="effect2_dropShadow" result="shape"/>
</filter>
<filter id="filter1_dd" x="1.35892" y="175.47" width="445.488" height="249.823" filterUnits="userSpaceOnUse" color-interpolation-filters="sRGB">
<feFlood flood-opacity="0" result="BackgroundImageFix"/>
<feColorMatrix in="SourceAlpha" type="matrix" values="0 0 0 0 0 0 0 0 0 0 0 0 0 0 0 0 0 0 127 0"/>
<feOffset dy="10"/>
<feGaussianBlur stdDeviation="5"/>
<feColorMatrix type="matrix" values="0 0 0 0 0 0 0 0 0 0 0 0 0 0 0 0 0 0 0.04 0"/>
<feBlend mode="normal" in2="BackgroundImageFix" result="effect1_dropShadow"/>
<feColorMatrix in="SourceAlpha" type="matrix" values="0 0 0 0 0 0 0 0 0 0 0 0 0 0 0 0 0 0 127 0"/>
<feOffset dy="20"/>
<feGaussianBlur stdDeviation="12.5"/>
<feColorMatrix type="matrix" values="0 0 0 0 0 0 0 0 0 0 0 0 0 0 0 0 0 0 0.1 0"/>
<feBlend mode="normal" in2="effect1_dropShadow" result="effect2_dropShadow"/>
<feBlend mode="normal" in="SourceGraphic" in2="effect2_dropShadow" result="shape"/>
</filter>
<filter id="filter2_d" x="7.72462" y="311.702" width="495.488" height="299.823" filterUnits="userSpaceOnUse" color-interpolation-filters="sRGB">
<feFlood flood-opacity="0" result="BackgroundImageFix"/>
<feColorMatrix in="SourceAlpha" type="matrix" values="0 0 0 0 0 0 0 0 0 0 0 0 0 0 0 0 0 0 127 0"/>
<feOffset dy="25"/>
<feGaussianBlur stdDeviation="25"/>
<feColorMatrix type="matrix" values="0 0 0 0 0 0 0 0 0 0 0 0 0 0 0 0 0 0 0.25 0"/>
<feBlend mode="normal" in2="BackgroundImageFix" result="effect1_dropShadow"/>
<feBlend mode="normal" in="SourceGraphic" in2="effect1_dropShadow" result="shape"/>
</filter>
<filter id="filter3_dd" x="298.045" y="473.409" width="101.67" height="109.031" filterUnits="userSpaceOnUse" color-interpolation-filters="sRGB">
<feFlood flood-opacity="0" result="BackgroundImageFix"/>
<feColorMatrix in="SourceAlpha" type="matrix" values="0 0 0 0 0 0 0 0 0 0 0 0 0 0 0 0 0 0 127 0"/>
<feOffset dy="10"/>
<feGaussianBlur stdDeviation="5"/>
<feColorMatrix type="matrix" values="0 0 0 0 0 0 0 0 0 0 0 0 0 0 0 0 0 0 0.04 0"/>
<feBlend mode="normal" in2="BackgroundImageFix" result="effect1_dropShadow"/>
<feColorMatrix in="SourceAlpha" type="matrix" values="0 0 0 0 0 0 0 0 0 0 0 0 0 0 0 0 0 0 127 0"/>
<feOffset dy="20"/>
<feGaussianBlur stdDeviation="12.5"/>
<feColorMatrix type="matrix" values="0 0 0 0 0 0 0 0 0 0 0 0 0 0 0 0 0 0 0.1 0"/>
<feBlend mode="normal" in2="effect1_dropShadow" result="effect2_dropShadow"/>
<feBlend mode="normal" in="SourceGraphic" in2="effect2_dropShadow" result="shape"/>
</filter>
<clipPath id="clip0">
<rect width="44" height="44" fill="white" transform="matrix(0.97237 0.233445 0.00820296 0.999966 350.27 162.968)"/>
</clipPath>
</defs>
</svg>
